#!OML:ASF C:\Vicon Data\Big\jianyuan-11\jianyuan\Session 1\male.ASF
:FULLY-SPECIFIED
:DEGREES
139
root -11.474103 16.185542 -13.244753 -8.043918 -38.207907 7.865838
lowerback -0.609793 6.188964 1.255947 
upperback 4.740686 8.362808 -0.354513 
thorax 5.484665 4.261858 -0.591289 
lowerneck -11.371726 -9.263270 -11.677478 
upperneck 23.855272 -12.679968 11.237137 
head 11.088152 -5.386152 4.318109 
rclavicle 0.000000 0.000000 
rhumerus -35.043919 -18.903375 -82.912261 
rradius 45.652991 
rwrist -6.401813 
rhand -16.671459 0.332436 
rfingers 0.000000 
rthumb 9.552302 -29.430993 
lclavicle 0.000000 0.000000 
lhumerus -86.142073 53.558646 8.785276 
lradius 18.062096 
lwrist -65.827486 
lhand -13.078447 -8.620693 
lfingers 0.000000 
lthumb 13.017552 20.953129 
rfemur 18.752714 4.590388 29.758280 
rtibia 28.247795 
rfoot 11.193943 0.506752 
rtoes 19.465301 
lfemur -23.068355 -2.540755 -22.528028 
ltibia 23.807207 
lfoot -4.314098 2.039120 
ltoes -3.026248 
140
root -11.498501 16.184326 -13.209293 -8.115020 -38.252533 8.009163
lowerback -0.669738 6.185734 1.095534 
upperback 4.715888 8.363598 -0.388099 
thorax 5.474209 4.255264 -0.534601 
lowerneck -11.421474 -9.236253 -11.608348 
upperneck 23.911519 -12.645612 11.198981 
head 11.106090 -5.364770 4.297891 
rclavicle 0.000000 0.000000 
rhumerus -35.135092 -19.047299 -82.864603 
rradius 45.498882 
rwrist -6.206721 
rhand -16.728998 0.403556 
rfingers 0.000000 
rthumb 9.496785 -29.362432 
lclavicle 0.000000 0.000000 
lhumerus -86.090995 53.536983 8.843340 
lradius 18.082011 
lwrist -65.827182 
lhand -13.004452 -8.642857 
lfingers 0.000000 
lthumb 13.088886 20.926374 
rfemur 18.588572 4.483002 29.529493 
rtibia 28.701531 
rfoot 11.466093 0.540617 
rtoes 19.357710 
lfemur -23.036089 -2.682949 -22.608864 
ltibia 23.901534 
lfoot -4.226399 2.202528 
ltoes -1.139036 
141
root -11.522898 16.183110 -13.173834 -8.186122 -38.297159 8.152489
lowerback -0.729683 6.182503 0.935120 
upperback 4.691090 8.364389 -0.421684 
thorax 5.463754 4.248670 -0.477912 
lowerneck -11.471222 -9.209235 -11.539217 
upperneck 23.967766 -12.611255 11.160824 
head 11.124029 -5.343389 4.277673 
rclavicle 0.000000 0.000000 
rhumerus -35.226265 -19.191222 -82.816945 
rradius 45.344774 
rwrist -6.011628 
rhand -16.786537 0.474676 
rfingers 0.000000 
rthumb 9.441268 -29.293872 
lclavicle 0.000000 0.000000 
lhumerus -86.039917 53.515321 8.901403 
lradius 18.101925 
lwrist -65.826877 
lhand -12.930457 -8.665022 
lfingers 0.000000 
lthumb 13.160221 20.899618 
rfemur 18.424431 4.375617 29.300705 
rtibia 29.155268 
rfoot 11.738244 0.574481 
rtoes 19.250119 
lfemur -23.003823 -2.825143 -22.689700 
ltibia 23.995861 
lfoot -4.138700 2.365936 
ltoes 0.748175 
142
root -11.548093 16.181321 -13.137783 -8.285104 -38.327751 8.316605
lowerback -0.749448 6.175362 0.768305 
upperback 4.662792 8.362092 -0.478461 
thorax 5.429492 4.241485 -0.446614 
lowerneck -11.374782 -9.215508 -11.567225 
upperneck 23.916482 -12.647293 11.278209 
head 11.101891 -5.353122 4.322686 
rclavicle 0.000000 0.000000 
rhumerus -35.312500 -19.349371 -82.783328 
rradius 45.227559 
rwrist -6.027898 
rhand -16.756961 0.439666 
rfingers 0.000000 
rthumb 9.469824 -29.327570 
lclavicle 0.000000 0.000000 
lhumerus -86.054842 53.525296 8.826716 
lradius 18.127302 
lwrist -65.935332 
lhand -12.870319 -8.704249 
lfingers 0.000000 
lthumb 13.218202 20.856633 
rfemur 18.236237 4.220057 29.033130 
rtibia 29.685097 
rfoot 12.043672 0.655386 
rtoes 19.069683 
lfemur -22.941811 -3.035062 -22.780509 
ltibia 24.089770 
lfoot -4.096825 2.595806 
ltoes 2.694231 
143
root -11.573560 16.179337 -13.101531 -8.393621 -38.353543 8.487831
lowerback -0.755471 6.166882 0.599300 
upperback 4.633299 8.358739 -0.543169 
thorax 5.387086 4.234097 -0.423999 
lowerneck -11.228347 -9.233165 -11.628453 
upperneck 23.828422 -12.707405 11.448789 
head 11.066046 -5.373495 4.390008 
rclavicle 0.000000 0.000000 
rhumerus -35.397046 -19.512385 -82.754512 
rradius 45.122962 
rwrist -6.116454 
rhand -16.697593 0.368360 
rfingers 0.000000 
rthumb 9.527134 -29.396240 
lclavicle 0.000000 0.000000 
lhumerus -86.092340 53.546091 8.706627 
lradius 18.154546 
lwrist -66.080983 
lhand -12.814920 -8.749313 
lfingers 0.000000 
lthumb 13.271617 20.808097 
rfemur 18.039818 4.048022 28.752289 
rtibia 30.240950 
rfoot 12.360481 0.752379 
rtoes 18.864334 
lfemur -22.869627 -3.268144 -22.874729 
ltibia 24.183535 
lfoot -4.070622 2.848406 
ltoes 4.660411 
144
root -11.600468 16.178000 -13.063493 -8.492319 -38.392831 8.650870
lowerback -0.777451 6.162206 0.431454 
upperback 4.604019 8.360064 -0.601717 
thorax 5.353313 4.228786 -0.393515 
lowerneck -11.131665 -9.246389 -11.647204 
upperneck 23.794911 -12.751439 11.547998 
head 11.049519 -5.387286 4.425876 
rclavicle 0.000000 0.000000 
rhumerus -35.486649 -19.675426 -82.720807 
rradius 44.985357 
rwrist -6.116849 
rhand -16.694524 0.338436 
rfingers 0.000000 
rthumb 9.530108 -29.426003 
lclavicle 0.000000 0.000000 
lhumerus -86.089735 53.561060 8.637845 
lradius 18.161457 
lwrist -66.175186 
lhand -12.799046 -8.778856 
lfingers 0.000000 
lthumb 13.286919 20.777560 
rfemur 17.822180 3.878157 28.473340 
rtibia 30.826954 
rfoot 12.680592 0.871111 
rtoes 18.629927 
lfemur -22.802013 -3.489367 -22.959166 
ltibia 24.299206 
lfoot -4.069131 3.115450 
ltoes 6.510615 
145
root -11.630349 16.178000 -13.021768 -8.570749 -38.459975 8.797007
lowerback -0.832370 6.165382 0.265999 
upperback 4.575182 8.371048 -0.647550 
thorax 5.337357 4.227761 -0.346788 
lowerneck -11.137685 -9.250460 -11.578271 
upperneck 23.873999 -12.762285 11.499883 
head 11.072864 -5.387488 4.396814 
rclavicle 0.000000 0.000000 
rhumerus -35.586694 -19.838520 -82.677012 
rradius 44.779616 
rwrist -5.935262 
rhand -16.807665 0.393936 
rfingers 0.000000 
rthumb 9.420923 -29.375452 
lclavicle 0.000000 0.000000 
lhumerus -86.004350 53.564001 8.674967 
lradius 18.126393 
lwrist -66.163191 
lhand -12.864762 -8.776360 
lfingers 0.000000 
lthumb 13.223546 20.784177 
rfemur 17.560741 3.712774 28.198299 
rtibia 31.475196 
rfoot 13.007516 1.034717 
rtoes 18.335538 
lfemur -22.743834 -3.686110 -23.023412 
ltibia 24.460095 
lfoot -4.118652 3.412311 
ltoes 8.121419 
146
root -11.665623 16.178294 -12.971763 -8.678390 -38.512429 9.005633
lowerback -0.909755 6.152307 0.033371 
upperback 4.543707 8.362936 -0.696684 
thorax 5.322023 4.214341 -0.266229 
lowerneck -11.192471 -9.240155 -11.504069 
upperneck 23.994534 -12.744702 11.419482 
head 11.114658 -5.375231 4.358675 
rclavicle 0.000000 0.000000 
rhumerus -35.704188 -20.006939 -82.597502 
rradius 44.564563 
rwrist -5.799768 
rhand -16.875122 0.419927 
rfingers 0.000000 
rthumb 9.355827 -29.352414 
lclavicle 0.000000 0.000000 
lhumerus -85.939386 53.569051 8.716595 
lradius 18.096551 
lwrist -66.104800 
lhand -12.915875 -8.795016 
lfingers 0.000000 
lthumb 13.174262 20.768741 
rfemur 17.226978 3.475356 27.825559 
rtibia 32.270956 
rfoot 13.387537 1.276980 
rtoes 17.664632 
lfemur -22.688498 -3.939319 -23.135585 
ltibia 24.673563 
lfoot -4.209383 3.750801 
ltoes 10.202340 
147
root -11.733956 16.178744 -12.871772 -8.927611 -38.518155 9.516258
lowerback -1.118243 6.057226 -0.520111 
upperback 4.513575 8.259684 -0.767991 
thorax 5.339082 4.139767 -0.026905 
lowerneck -11.399487 -9.169944 -11.484360 
upperneck 24.202721 -12.618774 11.306328 
head 11.206237 -5.316354 4.331302 
rclavicle 0.000000 0.000000 
rhumerus -35.881268 -20.254103 -82.347357 
rradius 44.209663 
rwrist -5.711728 
rhand -16.798610 0.346636 
rfingers 0.000000 
rthumb 9.429671 -29.422363 
lclavicle 0.000000 0.000000 
lhumerus -85.815348 53.618984 8.979552 
lradius 18.110448 
lwrist -65.777010 
lhand -12.858068 -8.864576 
lfingers 0.000000 
lthumb 13.230009 20.695605 
rfemur 16.474648 2.850972 26.946457 
rtibia 33.956025 
rfoot 14.094798 1.885764 
rtoes 15.030739 
lfemur -22.644402 -4.481554 -23.470864 
ltibia 25.223898 
lfoot -4.609975 4.288112 
ltoes 14.306782 
